<?xml version="1.0" encoding="UTF-8" standalone="no"?>
<!-- Created with Inkscape (http://www.inkscape.org/) -->

<svg
   width="256"
   height="256"
   viewBox="0 0 67.733332 67.733335"
   version="1.1"
   id="svg5"
   inkscape:version="1.1.1 (3bf5ae0d25, 2021-09-20)"
   sodipodi:docname="r5.svg"
   xmlns:inkscape="http://www.inkscape.org/namespaces/inkscape"
   xmlns:sodipodi="http://sodipodi.sourceforge.net/DTD/sodipodi-0.dtd"
   xmlns="http://www.w3.org/2000/svg"
   xmlns:svg="http://www.w3.org/2000/svg">
  <sodipodi:namedview
     id="namedview7"
     pagecolor="#ffffff"
     bordercolor="#666666"
     borderopacity="1.0"
     inkscape:pageshadow="2"
     inkscape:pageopacity="0.0"
     inkscape:pagecheckerboard="0"
     inkscape:document-units="mm"
     showgrid="false"
     units="px"
     width="256px"
     inkscape:zoom="1.9981322"
     inkscape:cx="170.15891"
     inkscape:cy="134.87596"
     inkscape:window-width="1912"
     inkscape:window-height="1008"
     inkscape:window-x="0"
     inkscape:window-y="34"
     inkscape:window-maximized="1"
     inkscape:current-layer="layer1" />
  <defs
     id="defs2" />
  <g
     inkscape:label="图层 1"
     inkscape:groupmode="layer"
     id="layer1">
    <path
       sodipodi:type="star"
       style="fill:#000000;stroke-width:1.067;stroke-linecap:round"
       id="path1938"
       inkscape:flatsided="false"
       sodipodi:sides="5"
       sodipodi:cx="122.98027"
       sodipodi:cy="120.93353"
       sodipodi:r1="133.73616"
       sodipodi:r2="106.8334"
       sodipodi:arg1="0.94602097"
       sodipodi:arg2="1.5743395"
       inkscape:rounded="0.392707"
       inkscape:randomized="0"
       d="m 201.20457,229.4062 c -25.04222,18.05902 -47.72842,-1.53055 -78.60283,-1.63994 -30.874402,-0.10939 -53.698854,19.31892 -78.612471,1.0829 C 19.075652,210.61314 30.696014,182.98377 21.259338,153.58666 11.822662,124.18955 -13.707905,108.48589 -4.0631504,79.156388 5.5816047,49.82689 35.449588,52.340566 60.491805,34.281548 c 25.042218,-18.059017 32.087911,-47.19273 62.962315,-47.083336 30.8744,0.109394 37.71347,29.292302 62.62709,47.528323 24.91361,18.236021 54.79866,15.934061 64.23534,45.331168 9.43667,29.397107 -16.20454,44.919457 -25.84929,74.248957 -9.64476,29.3295 1.77952,57.04052 -23.26269,75.09954 z"
       transform="matrix(0.25964536,0,0,0.25964536,1.908979,4.7541321)"
       inkscape:transform-center-x="-0.026430377"
       inkscape:transform-center-y="-2.287297" />
  </g>
</svg>
